<?xml version="1.0" encoding="UTF-8" standalone="no"?><!DOCTYPE svg PUBLIC "-//W3C//DTD SVG 1.1//EN" "http://www.w3.org/Graphics/SVG/1.1/DTD/svg11.dtd"><svg viewBox="0 0 2696 884" version="1.1" xmlns="http://www.w3.org/2000/svg" xmlns:xlink="http://www.w3.org/1999/xlink" xml:space="preserve" xmlns:serif="http://www.serif.com/" style="fill-rule:evenodd;clip-rule:evenodd;stroke-linejoin:round;stroke-miterlimit:2;"><g><path d="M1354.83,611.817l-84.571,-0l0,175.421c0,11.108 1.063,20.287 3.209,27.545c2.129,7.267 5.221,12.921 9.283,16.975c4.054,4.067 8.862,6.838 14.417,8.33c5.546,1.499 11.537,2.241 17.937,2.241c5.984,0 12.275,-0.85 18.904,-2.558c6.613,-1.704 12.913,-4.058 18.9,-7.05l1.921,37.8c-7.687,2.996 -15.696,5.229 -24.025,6.729c-8.329,1.492 -17.408,2.242 -27.229,2.242c-8.117,-0 -16.662,-1.075 -25.625,-3.204c-8.971,-2.134 -17.3,-6.188 -24.988,-12.171c-7.687,-5.979 -13.991,-14.096 -18.9,-24.346c-4.916,-10.254 -7.366,-23.709 -7.366,-40.367l-0,-187.587l-62.15,-0l-0,-36.521l62.15,-0l-0,-84.054l43.562,-0l0,84.054l84.571,-0l0,36.521Z" style="fill:#221f20;fill-rule:nonzero;"/><path d="M927.2,575.271l0.013,50.771l0.158,-0c8.542,-17.509 21.608,-30.692 40.829,-41.579c19.225,-10.896 39.508,-16.342 60.867,-16.342c38.012,-0 66.516,11.321 85.529,33.954c19,22.646 28.512,52.537 28.512,89.696l0,183.875l-43.566,-0l-0,-165.938c-0,-15.795 -1.284,-30.108 -3.846,-42.925c-2.563,-12.812 -6.95,-23.804 -13.133,-32.995c-6.196,-9.18 -14.525,-16.334 -24.988,-21.459c-10.467,-5.125 -23.604,-7.692 -39.4,-7.692c-11.533,0 -22.746,2.355 -33.633,7.051c-10.896,4.708 -20.613,11.849 -29.155,21.462c-8.55,9.608 -15.37,21.788 -20.499,36.517c-5.125,14.737 -7.692,32.15 -7.692,52.216l-0,153.763l-43.567,-0l0.033,-300.375l43.538,-0Z" style="fill:#221f20;fill-rule:nonzero;"/><path d="M607.917,665.825c5.546,-11.742 13.02,-22.204 22.421,-31.392c9.391,-9.179 20.283,-16.441 32.679,-21.783c12.383,-5.338 25.829,-8.013 40.362,-8.013c31.167,0 55.196,9.296 72.071,27.871c16.871,18.584 25.946,41.963 27.229,70.159l-204.375,-0c0.854,-12.817 4.054,-25.092 9.613,-36.842Zm176.387,150.558c-5.512,4.959 -11.558,9.7 -18.462,14.096c-16.45,10.471 -35.988,15.696 -58.625,15.696c-15.375,-0 -29.688,-2.883 -42.925,-8.65c-13.238,-5.767 -24.775,-13.554 -34.592,-23.379c-9.833,-9.825 -17.521,-21.354 -23.067,-34.6c-5.558,-13.233 -8.55,-27.329 -8.966,-42.288l248.583,0c0.417,-3.841 0.638,-7.466 0.638,-10.891l-0,-9.609c-0,-20.5 -3.1,-39.725 -9.292,-57.658c-6.196,-17.942 -15.275,-33.637 -27.229,-47.092c-11.963,-13.458 -26.909,-24.125 -44.842,-32.037c-17.946,-7.896 -38.671,-11.85 -62.146,-11.85c-21.367,-0 -41.225,3.954 -59.587,11.85c-18.367,7.912 -34.388,18.904 -48.05,32.996c-13.675,14.095 -24.346,30.754 -32.034,49.975c-7.687,19.221 -11.529,40.15 -11.529,62.787c0,22.642 3.938,43.567 11.85,62.788c7.896,19.216 18.679,35.879 32.354,49.971c13.663,14.095 30,25.1 49.013,32.991c18.996,7.9 39.608,11.854 61.821,11.854c24.766,0 47.941,-4.916 69.516,-14.733c21.563,-9.825 43.604,-27.179 61.955,-52.25l-54.384,0.033Z" style="fill:#221f20;fill-rule:nonzero;"/><path d="M564.288,422.046l-147.359,394.016l-1.279,0l-90.054,-240.795l-48.846,-0l114.55,300.379l48.696,-0l173.625,-453.6l-49.333,-0Z" style="fill:#221f20;fill-rule:nonzero;"/><path d="M43.567,575.271l0.016,50.771l0.154,-0c8.542,-17.509 21.609,-30.692 40.83,-41.579c19.221,-10.896 39.504,-16.342 60.862,-16.342c38.013,-0 66.521,11.321 85.533,33.954c18.996,22.646 28.509,52.537 28.509,89.696l-0,183.875l-43.567,-0l0,-165.938c0,-15.795 -1.279,-30.108 -3.841,-42.925c-2.563,-12.812 -6.946,-23.804 -13.134,-32.995c-6.196,-9.18 -14.529,-16.334 -24.987,-21.459c-10.467,-5.125 -23.604,-7.692 -39.4,-7.692c-11.534,0 -22.746,2.355 -33.638,7.051c-10.891,4.708 -20.608,11.849 -29.15,21.462c-8.55,9.608 -15.375,21.788 -20.504,36.517c-5.125,14.737 -7.688,32.15 -7.688,52.216l0,153.763l-43.562,-0l0.029,-300.375l43.538,-0Z" style="fill:#221f20;fill-rule:nonzero;"/><path d="M329.579,357.921c-2.579,-12.788 5.688,-25.258 18.492,-27.842l139.008,-28.042c12.804,-2.579 25.275,5.705 27.854,18.488c2.584,12.808 -5.704,25.279 -18.5,27.858l-139.016,28.042c-12.8,2.583 -25.259,-5.704 -27.838,-18.504Z" style="fill:#f26423;fill-rule:nonzero;"/><path d="M531.387,236.604c-7.237,10.875 -21.895,13.829 -32.779,6.613l-118.12,-78.463c-10.871,-7.221 -13.825,-21.879 -6.609,-32.766c7.217,-10.88 21.892,-13.842 32.779,-6.596l118.121,78.458c10.871,7.225 13.829,21.883 6.608,32.754Z" style="fill:#ecaf1f;fill-rule:nonzero;"/><path d="M620.863,161.062c2.583,12.801 -5.709,25.259 -18.496,27.838c-12.8,2.588 -25.267,-5.688 -27.85,-18.487l-28.042,-138.996c-2.579,-12.805 5.7,-25.288 18.5,-27.871c12.792,-2.579 25.267,5.721 27.846,18.521l28.042,138.995Z" style="fill:#c4262e;fill-rule:nonzero;"/><path d="M679.675,172.604l78.471,-118.117c7.221,-10.9 21.891,-13.854 32.737,-6.616c10.9,7.225 13.859,21.887 6.613,32.775l-78.454,118.104c-7.221,10.867 -21.892,13.829 -32.763,6.608c-10.871,-7.221 -13.829,-21.879 -6.604,-32.754Z" style="fill:#f26423;fill-rule:nonzero;"/><path d="M900.829,266.804l-138.991,28.038c-12.801,2.583 -25.276,-5.7 -27.859,-18.5c-2.579,-12.792 5.704,-25.263 18.509,-27.846l138.995,-28.038c12.788,-2.579 25.275,5.705 27.855,18.488c2.583,12.804 -5.717,25.279 -18.509,27.858Z" style="fill:#ecaf1f;fill-rule:nonzero;"/><path d="M875.033,464.875c-7.221,10.887 -21.891,13.846 -32.762,6.608l-118.134,-78.454c-10.866,-7.208 -13.829,-21.896 -6.608,-32.767c7.221,-10.87 21.892,-13.829 32.763,-6.608l118.108,78.475c10.896,7.217 13.854,21.875 6.633,32.746Z" style="fill:#c4262e;fill-rule:nonzero;"/><rect x="1436.75" y="491.379" width="18.629" height="384.546" style="fill:#c4262e;fill-rule:nonzero;"/><path d="M1674.64,785.396l-83.025,-0l-0,52.346l98.062,-0l0,40.608l-150.858,0l-0,-218.992l151.158,0l0,40.759l-98.362,-0l-0,46.175l83.025,-0l-0,39.104Z" style="fill:#c4262e;fill-rule:nonzero;"/><path d="M1767.37,760.279l33.383,0c10.029,0 17.575,-2.637 22.638,-7.917c5.062,-5.275 7.6,-12.641 7.6,-22.087c-0,-9.446 -2.563,-16.862 -7.671,-22.237c-5.121,-5.376 -12.633,-8.071 -22.567,-8.071l-33.383,-0l-0,60.312Zm28.571,40.613l-28.571,-0l-0,77.458l-52.796,0l-0,-218.992l86.179,0c25.971,0 46.275,5.763 60.917,17.284c14.642,11.512 21.958,27.791 21.958,48.821c0,15.233 -3.083,27.85 -9.246,37.862c-6.17,10.021 -15.821,18.133 -28.958,24.342l45.725,88.425l0,2.258l-56.55,0l-38.658,-77.458Z" style="fill:#c4262e;fill-rule:nonzero;"/><rect x="1904.74" y="659.358" width="52.642" height="218.992" style="fill:#c4262e;fill-rule:nonzero;"/><path d="M2119.86,791.113l-85.124,-0l-0,87.237l-52.796,0l-0,-218.992l146.491,0l0,40.759l-93.695,-0l-0,50.387l85.124,0l0,40.609Z" style="fill:#c4262e;fill-rule:nonzero;"/><path d="M2206.48,837.742l91.892,-0l-0,40.608l-144.683,0l-0,-218.992l52.791,0l0,178.384Z" style="fill:#c4262e;fill-rule:nonzero;"/><path d="M2458.82,785.396l-83.021,-0l-0,52.346l98.066,-0l0,40.608l-150.858,0l0,-218.992l151.154,0l0,40.759l-98.362,-0l-0,46.175l83.021,-0l-0,39.104Z" style="fill:#c4262e;fill-rule:nonzero;"/><path d="M2596.24,732.154l35.796,-72.796l60.308,0l-61.208,108.596l62.862,110.396l-60.913,0l-36.845,-74.154l-36.85,74.154l-60.763,0l62.721,-110.396l-61.071,-108.596l60.163,0l35.8,72.796Z" style="fill:#c4262e;fill-rule:nonzero;"/></g></svg>
