<?xml version="1.0" encoding="UTF-8" standalone="no"?><!DOCTYPE svg PUBLIC "-//W3C//DTD SVG 1.1//EN" "http://www.w3.org/Graphics/SVG/1.1/DTD/svg11.dtd"><svg viewBox="0 0 2530 2438" version="1.1" xmlns="http://www.w3.org/2000/svg" xmlns:xlink="http://www.w3.org/1999/xlink" xml:space="preserve" xmlns:serif="http://www.serif.com/" style="fill-rule:evenodd;clip-rule:evenodd;stroke-linejoin:round;stroke-miterlimit:2;"><g><path d="M2269.39,2308.57l40.945,-96.509l57.892,0l-71.637,142.492l-0,79.896l-54.38,-0l0,-79.896l-71.483,-142.492l57.579,0l41.084,96.509Z" style="fill:#c4262e;fill-rule:nonzero;"/><path d="M2068.58,2253.46l0,139.746l18.625,0c15.384,0 27.2,-5.483 35.442,-16.425c8.246,-10.941 12.375,-27.216 12.375,-48.787l0,-9.634c0,-21.479 -4.129,-37.687 -12.375,-48.566c-8.242,-10.909 -20.263,-16.334 -36.05,-16.334l-18.017,0Zm-53.616,180.988l-0,-222.388l71.633,0c19.654,0 37.329,4.459 53.013,13.346c15.67,8.913 27.929,21.508 36.733,37.746c8.804,16.246 13.267,34.45 13.358,54.587l0,10.255c0,20.354 -4.3,38.62 -12.908,54.737c-8.6,16.146 -20.713,28.775 -36.346,37.909c-15.633,9.104 -33.075,13.716 -52.325,13.808l-73.158,-0Z" style="fill:#c4262e;fill-rule:nonzero;"/><path d="M1876.71,2253.46l-0,139.746l18.629,0c15.383,0 27.195,-5.483 35.441,-16.425c8.246,-10.941 12.375,-27.216 12.375,-48.787l0,-9.634c0,-21.479 -4.129,-37.687 -12.375,-48.566c-8.246,-10.909 -20.262,-16.334 -36.054,-16.334l-18.016,0Zm-53.617,180.988l-0,-222.388l71.633,0c19.659,0 37.334,4.459 53.013,13.346c15.679,8.913 27.929,21.508 36.737,37.746c8.809,16.246 13.263,34.45 13.354,54.587l0,10.255c0,20.354 -4.3,38.62 -12.9,54.737c-8.608,16.146 -20.716,28.775 -36.35,37.909c-15.633,9.104 -33.075,13.716 -52.325,13.808l-73.162,-0Z" style="fill:#c4262e;fill-rule:nonzero;"/><path d="M1677.89,2351.5l47.804,-0l-23.971,-77.125l-23.833,77.125Zm60.65,41.396l-73.475,-0l-12.83,41.554l-57.279,-0l81.563,-222.388l50.408,0l82.171,222.388l-57.575,-0l-12.983,-41.554Z" style="fill:#c4262e;fill-rule:nonzero;"/><path d="M1599.95,2359.13c-0.7,15.492 -4.879,29.146 -12.517,41.021c-7.637,11.879 -18.358,21.046 -32.154,27.559c-13.792,6.516 -29.55,9.787 -47.271,9.787c-29.229,-0 -52.246,-9.504 -69.05,-28.554c-16.804,-19.046 -25.2,-45.946 -25.2,-80.675l0,-10.975c0,-21.788 3.8,-40.863 11.375,-57.2c7.588,-16.367 18.513,-28.988 32.763,-37.904c14.262,-8.888 30.75,-13.342 49.5,-13.342c26.983,0 48.662,7.104 65.062,21.288c16.396,14.216 25.713,33.795 27.958,58.733l-53.462,-0c-0.4,-13.529 -3.817,-23.258 -10.237,-29.179c-6.409,-5.892 -16.192,-8.854 -29.321,-8.854c-13.342,-0 -23.13,4.987 -29.334,14.962c-6.216,10.008 -9.475,25.933 -9.77,47.817l-0,15.746c-0,23.72 2.974,40.679 8.929,50.841c5.958,10.196 16.212,15.275 30.787,15.275c12.313,0 21.742,-2.896 28.254,-8.696c6.517,-5.8 9.979,-15.025 10.384,-27.65l53.304,0Z" style="fill:#c4262e;fill-rule:nonzero;"/><rect x="0.008" y="2104.72" width="2368.22" height="19.442" style="fill:#c4262e;fill-rule:nonzero;"/><path d="M1413.7,1741.53l-88.246,0l0,183.037c0,11.596 1.104,21.171 3.342,28.746c2.221,7.584 5.45,13.484 9.691,17.717c4.23,4.238 9.246,7.133 15.046,8.692c5.784,1.566 12.034,2.333 18.717,2.333c6.238,0 12.808,-0.888 19.721,-2.667c6.9,-1.779 13.471,-4.233 19.721,-7.358l2.008,39.442c-8.025,3.125 -16.383,5.454 -25.075,7.02c-8.692,1.555 -18.162,2.342 -28.408,2.342c-8.471,0 -17.384,-1.121 -26.738,-3.346c-9.362,-2.22 -18.054,-6.454 -26.075,-12.7c-8.025,-6.237 -14.604,-14.708 -19.721,-25.4c-5.129,-10.704 -7.687,-24.741 -7.687,-42.12l-0,-195.738l-64.846,0l-0,-38.108l64.846,-0l-0,-87.713l45.458,0l0,87.713l88.246,-0l-0,38.108Z" style="fill:#221f20;fill-rule:nonzero;"/><path d="M967.488,1703.39l0.016,52.979l0.163,-0c8.916,-18.271 22.546,-32.025 42.604,-43.392c20.054,-11.363 41.216,-17.046 63.508,-17.046c39.663,0 69.408,11.813 89.25,35.429c19.821,23.63 29.742,54.821 29.742,93.596l-0,191.863l-45.454,-0l-0,-173.15c-0,-16.48 -1.338,-31.417 -4.013,-44.788c-2.675,-13.371 -7.25,-24.837 -13.704,-34.425c-6.462,-9.579 -15.154,-17.05 -26.071,-22.396c-10.929,-5.35 -24.633,-8.025 -41.116,-8.025c-12.034,0 -23.734,2.459 -35.096,7.354c-11.363,4.909 -21.504,12.367 -30.417,22.392c-8.921,10.033 -16.046,22.738 -21.392,38.109c-5.35,15.375 -8.025,33.545 -8.025,54.487l0,160.442l-45.458,-0l0.037,-313.429l45.426,-0Z" style="fill:#221f20;fill-rule:nonzero;"/><path d="M634.329,1797.88c5.788,-12.254 13.592,-23.167 23.4,-32.758c9.796,-9.579 21.158,-17.15 34.092,-22.729c12.925,-5.567 26.958,-8.359 42.117,-8.359c32.525,0 57.599,9.696 75.208,29.08c17.6,19.391 27.071,43.787 28.412,73.208l-213.258,-0c0.892,-13.371 4.229,-26.184 10.029,-38.442Zm184.054,157.096c-5.75,5.175 -12.062,10.125 -19.266,14.708c-17.163,10.93 -37.55,16.379 -61.167,16.379c-16.05,0 -30.983,-3.008 -44.796,-9.02c-13.812,-6.017 -25.85,-14.146 -36.096,-24.4c-10.262,-10.25 -18.279,-22.284 -24.066,-36.1c-5.8,-13.813 -8.921,-28.517 -9.359,-44.125l259.388,-0c0.433,-4.009 0.667,-7.792 0.667,-11.367l-0,-10.025c-0,-21.396 -3.242,-41.446 -9.696,-60.167c-6.467,-18.716 -15.942,-35.096 -28.413,-49.133c-12.483,-14.042 -28.079,-25.175 -46.792,-33.429c-18.725,-8.242 -40.35,-12.367 -64.849,-12.367c-22.292,0 -43.013,4.125 -62.175,12.367c-19.163,8.254 -35.88,19.721 -50.138,34.429c-14.267,14.708 -25.4,32.088 -33.425,52.142c-8.021,20.058 -12.029,41.9 -12.029,65.516c-0,23.629 4.108,45.459 12.366,65.517c8.238,20.054 19.492,37.437 33.759,52.142c14.258,14.712 31.304,26.187 51.142,34.429c19.824,8.242 41.329,12.366 64.512,12.366c25.838,0 50.021,-5.129 72.533,-15.374c22.496,-10.251 45.496,-28.355 64.65,-54.521l-56.75,0.033Z" style="fill:#221f20;fill-rule:nonzero;"/><path d="M588.804,1543.51l-153.762,411.134l-1.329,-0l-93.971,-251.259l-50.967,0l119.529,313.434l50.808,-0l181.167,-473.309l-51.475,0Z" style="fill:#221f20;fill-rule:nonzero;"/><path d="M45.463,1703.39l0.012,52.979l0.163,-0c8.916,-18.271 22.545,-32.025 42.604,-43.392c20.054,-11.363 41.22,-17.046 63.508,-17.046c39.662,0 69.408,11.813 89.25,35.429c19.821,23.63 29.746,54.821 29.746,93.596l-0,191.863l-45.458,-0l-0,-173.15c-0,-16.48 -1.338,-31.417 -4.013,-44.788c-2.671,-13.371 -7.246,-24.837 -13.704,-34.425c-6.463,-9.579 -15.154,-17.05 -26.071,-22.396c-10.925,-5.35 -24.629,-8.025 -41.112,-8.025c-12.038,0 -23.738,2.459 -35.096,7.354c-11.367,4.909 -21.509,12.367 -30.421,22.392c-8.921,10.033 -16.042,22.738 -21.392,38.109c-5.35,15.375 -8.025,33.545 -8.025,54.487l0,160.442l-45.454,-0l0.033,-313.429l45.43,-0Z" style="fill:#221f20;fill-rule:nonzero;"/><path d="M343.9,1476.59c-2.692,-13.342 5.937,-26.354 19.292,-29.05l145.054,-29.259c13.354,-2.696 26.371,5.946 29.058,19.292c2.696,13.358 -5.946,26.375 -19.304,29.067l-145.05,29.258c-13.358,2.696 -26.354,-5.95 -29.05,-19.308Z" style="fill:#f26423;fill-rule:nonzero;"/><path d="M554.475,1350c-7.546,11.346 -22.842,14.433 -34.2,6.9l-123.254,-81.871c-11.342,-7.533 -14.429,-22.833 -6.896,-34.187c7.529,-11.354 22.842,-14.442 34.204,-6.888l123.254,81.875c11.342,7.534 14.425,22.829 6.892,34.171Z" style="fill:#ecaf1f;fill-rule:nonzero;"/><path d="M647.838,1271.18c2.695,13.359 -5.951,26.359 -19.296,29.05c-13.359,2.692 -26.367,-5.937 -29.063,-19.296l-29.258,-145.033c-2.696,-13.358 5.946,-26.387 19.304,-29.079c13.342,-2.696 26.363,5.967 29.054,19.321l29.259,145.037Z" style="fill:#c4262e;fill-rule:nonzero;"/><path d="M709.204,1283.23l81.883,-123.25c7.534,-11.371 22.842,-14.458 34.155,-6.904c11.379,7.541 14.462,22.837 6.904,34.2l-81.863,123.233c-7.529,11.346 -22.841,14.433 -34.183,6.9c-11.346,-7.537 -14.429,-22.833 -6.896,-34.179Z" style="fill:#f26423;fill-rule:nonzero;"/><path d="M939.975,1381.52l-145.037,29.258c-13.359,2.696 -26.371,-5.95 -29.067,-19.308c-2.692,-13.342 5.954,-26.354 19.312,-29.054l145.038,-29.255c13.342,-2.691 26.371,5.95 29.058,19.296c2.696,13.354 -5.958,26.371 -19.304,29.063Z" style="fill:#ecaf1f;fill-rule:nonzero;"/><path d="M913.058,1588.2c-7.537,11.354 -22.845,14.446 -34.191,6.896l-123.263,-81.871c-11.341,-7.521 -14.433,-22.846 -6.9,-34.183c7.533,-11.346 22.846,-14.434 34.188,-6.9l123.241,81.887c11.367,7.529 14.454,22.825 6.925,34.171Z" style="fill:#c4262e;fill-rule:nonzero;"/><path d="M2107.68,31.45c36.767,4.45 77.996,-0 101.388,35.638c30.079,52.366 23.396,116.995 16.712,178.27c11.138,7.8 28.617,184.271 -11.741,219.742l-31.717,32.054c26.746,10.034 54.596,28.967 61.291,59.054c3.942,56.142 34.534,69.08 45.671,106.954c33.429,57.934 22.284,134.813 51.25,194.971c6.684,26.742 -14.483,45.692 7.796,66.859c3.35,31.2 -4.45,63.504 -13.367,93.575l-21.166,7.8c-92.479,170.47 -65.742,394.433 -85.788,591.637l21.171,149.279c25.621,-11.137 42.338,16.725 53.475,34.554c0,21.167 -13.371,47.905 18.942,47.905c21.167,51.241 82.45,62.4 122.554,93.596c75.767,75.474 40.104,84.674 83.567,99.145l-3.35,64.63c-106.95,43.166 -186.054,22.275 -258.484,-34.534l-37.875,-72.433c-14.491,-1.104 -28.966,14.496 -42.333,23.4l-118.1,-53.471c8.904,-47.925 -10.033,-98.058 7.8,-147.071c-2.229,-62.396 6.671,-129.233 -7.8,-187.187c-5.579,-75.746 1.104,-147.05 -15.6,-218.375c-14.492,-2.234 -31.2,3.358 -45.679,4.466c-22.296,139.263 -36.771,275.2 -18.938,417.805c20.038,27.862 -4.466,66.858 11.138,93.595l2.229,32.305c-36.771,22.295 -84.683,20.058 -125.904,34.533c-8.913,-12.238 -24.513,-8.904 -36.767,-13.367c-88.016,67.967 -217.262,63.504 -320.875,34.538c-10.029,-14.475 -4.454,-41.213 -5.575,-61.275c32.313,-12.259 32.313,-54.6 69.079,-70.196c36.767,-21.167 82.446,-22.271 120.33,-40.104c10.024,-12.263 25.625,-12.263 40.112,-15.6c-11.146,-16.705 1.112,-37.871 18.933,-51.263c8.917,-8.9 21.175,-10.008 32.317,-13.367c3.342,4.467 7.8,4.467 10.025,8.925c35.654,-99.162 22.283,-217.266 22.283,-320.87c-15.596,-70.196 -18.941,-145.963 -70.191,-200.563c-4.454,-38.996 9.712,-67.783 -11.459,-98.983c-17.821,-5.567 -29.412,-11.829 -46.271,-26.25c-16.904,-14.459 -32.475,-34.033 -32.512,-57.479c0,-42.334 -51.258,-93.596 2.225,-128.134c32.308,-18.933 15.596,-59.05 24.508,-88.025c14.484,-30.075 13.375,-65.725 21.175,-99.154c18.934,-55.708 46.788,-108.071 50.134,-170.458c12.254,-31.2 30.083,-51.263 59.05,-66.863l24.512,0l-3.346,-37.87c-28.966,-5.567 -71.3,-4.463 -76.875,-42.334c-1.116,-35.662 18.942,-64.629 45.684,-85.796c-23.405,-8.904 -53.484,-3.337 -66.85,-26.737c-0,-0 -3.421,-4.133 -2.288,-9.413c1.617,-7.541 4.513,-9.525 4.513,-9.525c46.791,-53.491 116.983,-73.533 154.866,-125.9c-1.116,-50.133 -7.796,-110.3 30.079,-147.066c35.655,-5.567 67.959,-20.063 106.967,-18.946c15.592,-26.738 66.842,-18.95 69.075,13.379Z" style="fill:#221f20;fill-rule:nonzero;"/><path d="M2180.1,2002.38c-32.313,-13.371 -64.617,-26.737 -96.921,-40.104l0,-28.967l96.921,36.767l-0,32.304Z" style="fill:#58595c;fill-rule:nonzero;"/><path d="M1979.56,1960.04c-31.2,12.262 -67.97,20.062 -99.166,23.4l-0,-28.967c35.65,2.229 65.733,-10.029 99.166,-13.367l0,18.934Z" style="fill:#58595c;fill-rule:nonzero;"/><path d="M1530.55,2000.15c-0,-11.138 -2.225,-23.396 4.458,-32.304c-1.112,14.475 15.592,18.937 24.508,24.508c0,0 93.592,19.767 152.646,13.367c44.559,-12.246 88.017,-30.075 130.35,-45.675c-77.991,65.733 -209.462,79.104 -311.962,40.104Z" style="fill:#58595c;fill-rule:nonzero;"/><path d="M2455.29,2085.95c17.834,-10.029 41.23,-12.267 53.492,-30.096l0,32.325c-67.967,40.104 -167.129,26.467 -225.062,-26.733c-25.634,-18.959 -28.971,-52.367 -53.475,-74.663c62.387,63.504 132.575,124.796 225.045,99.167Z" style="fill:#58595c;fill-rule:nonzero;"/><path d="M2142.22,1858.65c17.829,13.371 38.996,18.958 59.05,4.462c3.341,13.367 3.341,30.075 18.941,35.663c16.709,-1.125 31.204,10.008 45.675,21.171c-16.704,15.595 -24.508,35.641 -30.071,55.7l-139.27,-53.492c-22.296,-14.471 -13.367,-49.008 -7.796,-69.071c11.133,-10.029 57.929,-28.966 53.471,5.567Z" style="fill:#a8aaac;fill-rule:nonzero;"/><path d="M1976.2,1882.05c16.725,67.966 -63.496,47.904 -101.379,59.062c-27.854,2.23 -64.621,16.705 -95.817,26.734c13.371,-23.396 -31.2,-71.3 18.942,-72.429c27.854,4.466 41.221,-53.471 69.075,-23.396c21.167,1.125 33.421,-21.171 47.908,-30.075c26.733,5.566 72.429,-4.463 61.271,40.104Z" style="fill:#a8aaac;fill-rule:nonzero;"/><path d="M1765.63,1943.34c-5.575,11.137 3.342,31.179 -11.141,32.304c4.454,-42.334 -15.6,-81.33 -47.909,-103.625c8.913,-24.509 22.284,2.229 34.542,4.458c13.367,20.067 24.508,41.233 24.508,66.863Z" style="fill:#a8aaac;fill-rule:nonzero;"/><path d="M1744.47,1981.21l-8.917,2.23c0,-30.092 -5.571,-60.163 -26.742,-82.459l-34.533,-24.508c8.908,-17.829 45.675,17.837 56.817,37.896c7.8,20.042 16.712,41.212 13.375,66.841Z" style="fill:#a8aaac;fill-rule:nonzero;"/><path d="M1712.16,1933.31c1.109,16.704 11.142,33.413 5.567,50.134c-52.367,17.833 -149.292,-0.292 -163.779,-17.829c-4.458,-60.171 60.162,-66.842 88.017,-75.767c25.554,-8.175 60.166,14.496 70.195,43.462Z" style="fill:#a8aaac;fill-rule:nonzero;"/><path d="M2350.57,1900.98c-37.884,10.029 -84.684,45.692 -90.255,91.367c-6.683,-16.708 -2.229,-41.212 10.038,-56.813c22.279,-24.525 47.9,-36.766 80.217,-34.554Z" style="fill:#a8aaac;fill-rule:nonzero;"/><path d="M2372.85,1916.58c-32.313,5.571 -53.484,18.958 -77.996,43.463c-8.904,14.475 -14.471,30.075 -15.6,47.904c-5.567,-0 -7.8,-5.567 -11.138,-7.8c2.238,-24.504 13.367,-46.796 32.305,-64.609c20.066,-14.491 47.912,-27.858 72.429,-18.958Z" style="fill:#a8aaac;fill-rule:nonzero;"/><path d="M2482.03,2023.55l5.567,30.096c-54.583,32.008 -139.271,34.246 -187.183,-24.525c-18.938,-20.042 -0,-44.567 7.8,-63.504c14.495,-14.475 33.433,-26.738 53.491,-32.305c54.592,0 99.154,43.442 120.325,90.238Z" style="fill:#a8aaac;fill-rule:nonzero;"/><path d="M2281.48,1805.17c-12.25,46.796 -66.837,22 -99.158,50.133c-14.475,1.109 -26.738,0 -28.971,-15.595c-3.338,-20.063 14.496,-28.967 32.325,-30.075c11.137,3.337 23.392,4.445 31.192,13.366c14.479,-11.154 23.396,-38.996 45.683,-40.125c11.133,1.129 15.596,13.392 18.929,22.296Z" style="fill:#fff;fill-rule:nonzero;"/><path d="M1899.33,1820.78c3.334,16.704 -15.596,28.967 -26.741,34.533c-7.796,-6.67 -13.371,8.909 -21.167,0c-18.942,-5.566 -23.4,-26.733 -43.454,-28.966c-6.688,13.371 18.942,20.066 11.142,36.766c-2.225,0 -4.459,2.234 -5.571,3.338c-1.117,-15.6 -16.709,-20.038 -26.742,-30.071l7.8,-10.033c-10.025,-13.367 -23.392,4.462 -34.542,-5.567c-6.683,-24.796 13.542,-26.65 25.796,-33.325c27.854,59.037 82.279,-13.471 113.479,33.325Z" style="fill:#fff;fill-rule:nonzero;"/><path d="M1800.17,1876.48c-3.342,4.467 -6.692,4.467 -11.142,5.571c1.113,-15.6 -14.487,-27.838 -23.4,-36.767c15.6,-10.029 35.65,13.367 34.542,31.196Z" style="fill:#fff;fill-rule:nonzero;"/><path d="M2254.68,1839.39c-4.896,16.462 -17.758,27.054 -21.096,42.654c-11.146,2.229 -10.033,-10.029 -13.371,-15.6c5.571,-13.367 14.892,-26.613 32.305,-26.733l2.162,-0.321Z" style="fill:#fff;fill-rule:nonzero;"/><path d="M2262.55,1887.61c-3.35,3.363 -13.192,3.963 -10.037,7.801c-9.85,-11.976 0.829,-24.875 4.466,-36.767c2.542,-8.309 15.488,-17.475 18.938,-13.367c10.171,12.134 -11.138,26.738 -13.367,42.333Z" style="fill:#fff;fill-rule:nonzero;"/><path d="M1771.21,1868.68l2.225,18.933c-2.225,-1.099 -3.341,1.13 -5.575,2.234l-26.733,-36.767c13.367,-3.337 27.85,2.229 30.083,15.6Z" style="fill:#fff;fill-rule:nonzero;"/><path d="M2300.42,1863.11c6.695,16.704 -7.788,32.305 -21.167,40.104c-5.567,2.23 -7.8,-2.229 -11.138,-4.441c8.917,-13.367 13.367,-34.554 32.305,-35.663Z" style="fill:#fff;fill-rule:nonzero;"/><path d="M2273.68,1807.41c3.346,17.83 -20.054,8.904 -26.737,18.934c-5.571,1.108 -7.8,-2.229 -11.134,-5.567c4.451,-14.492 32.3,-43.458 37.871,-13.367Z" style="fill:#221f20;fill-rule:nonzero;"/><path d="M1796.54,1810.48l3.637,4.729l-26.742,0c-1.116,-6.692 -2.75,-13.921 5.084,-14.742c6.337,-0.666 9.675,4.005 19.687,11.013l-1.666,-1Z" style="fill:#221f20;fill-rule:nonzero;"/><path d="M1885.96,1823c-1.117,11.138 -7.8,23.404 -18.942,24.504c-14.488,-4.458 -35.654,-10.029 -37.879,-28.962c18.941,-6.696 38.991,-1.109 56.821,4.458Z" style="fill:#221f20;fill-rule:nonzero;"/><path d="M2209.07,1826.34c3.341,13.371 1.112,7.529 -5.571,14.204l-40.117,6.962c-4.45,-7.795 -3.333,-23.395 5.567,-26.733c15.604,-2.229 26.754,3.338 40.121,5.567Z" style="fill:#221f20;fill-rule:nonzero;"/><path d="M2216.71,1466.92c1.404,-53.388 7.925,-170.629 7.925,-170.629c2.817,-32.971 5.867,-65.713 8.946,-98.329c-24.512,41.208 -67.966,60.166 -106.962,76.87c-81.338,21.167 -170.459,-5.566 -227.284,-69.07c4.454,18.937 -7.796,30.071 -11.145,45.675c-20.055,-12.267 4.454,-31.205 -0,-47.909c-8.913,26.734 -41.221,44.567 -69.075,50.138c-18.938,-2.229 -38.996,-15.6 -47.905,-28.967c-2.233,13.367 3.338,24.5 4.45,36.767c9.405,11.083 14.534,21.125 24.425,34.825c0,-0 19.475,25.004 26.83,73.029c9.533,62.292 16.833,77.987 17.725,101.125c1.004,26.104 -0.163,-13.704 3.395,133.142l-1.916,76.512l0.004,0c-3.075,40.063 -4.992,80.621 -19.208,116.167c12.254,-8.925 30.083,-3.354 45.679,-4.463c15.596,6.675 35.65,15.596 42.337,34.534c14.479,-1.104 30.084,2.233 43.45,-3.338l0,-124.792c-0.721,-5.466 -1.092,-10.908 -1.496,-16.349c0.017,-10.926 0.459,-77.517 8.605,-127.209c8.895,-54.279 29.362,-152.158 29.362,-152.158l68.517,-5.338c-0,0 12.983,55.167 13.875,84.529l-0,108.559c3.029,19.575 18.75,93.333 18.75,93.333l0.654,1.604c4.612,46.213 7.512,90.709 -0.104,137.821c45.675,12.246 50.133,-40.125 93.579,-31.196c11.146,0 23.396,21.167 32.312,2.23c-5.508,-37.121 -9.879,-76.53 -12.57,-117.509l-0.155,-0.696l-6.237,-56.95c-0,0 11.829,-98.566 13.237,-151.958Z" style="fill:#58595c;fill-rule:nonzero;"/><path d="M2260.31,940.592c-3.333,-5.567 -6.683,-18.946 2.238,-23.4c18.929,-8.917 45.667,-28.967 61.271,-13.367c-16.709,-20.063 -41.225,-22.296 -66.842,-24.512c-2.233,-6.688 5.571,-8.921 8.904,-13.371c15.596,-3.346 39,-5.58 53.479,3.337l0,-11.146c-31.183,-77.979 -12.191,-178.604 -77.591,-250.679c-0,0 -8.008,-15.571 -7.563,-29.808c0.405,-12.967 -8.429,-24.788 -8.429,-24.788c-14.492,-16.704 -35.658,-42.333 -56.833,-31.2c-7.796,61.296 -23.396,119.229 -47.896,173.817c-12.267,-20.054 -17.838,-42.346 -28.971,-62.387c-5.566,7.799 -13.371,8.904 -18.933,13.366c-23.404,5.571 -50.138,3.338 -70.2,-7.8c-18.946,15.6 -30.084,46.8 -47.913,70.188c-30.079,-34.538 -21.162,-101.388 -74.641,-123.671c-22.284,-14.484 -16.717,-70.184 -59.05,-45.679c-26.742,12.262 -35.659,40.1 -42.338,64.629c-11.146,83.554 -40.112,166.004 -66.846,246.221c-16.716,32.316 3.338,83.558 -30.087,106.954c-30.084,24.504 -8.917,56.829 -7.796,88.029l13.367,-13.367c36.766,8.9 -16.713,27.838 -7.8,47.9c12.254,23.409 25.625,53.48 55.708,56.817c-1.117,-13.367 -15.6,-7.8 -21.167,-16.708c-1.116,-13.367 14.484,-18.934 21.167,-28.971c38.996,-23.4 94.704,-37.871 139.271,-16.704c4.454,-14.496 11.142,-28.967 7.8,-47.925c-6.688,-8.904 -5.571,-25.609 -21.171,-26.738c-30.083,22.296 -67.967,23.4 -103.617,30.096c-6.683,-3.358 -5.566,-10.033 -5.566,-16.725c26.737,-30.071 74.646,-30.071 116.983,-23.4l-0,-49.008c-18.942,-6.692 -28.967,25.629 -44.567,8.904c0,-15.596 17.825,-14.471 26.742,-22.271c2.225,-24.517 -33.425,-13.367 -37.883,-31.2c2.225,-2.233 4.458,-6.696 7.8,-5.571c5.571,-53.491 12.25,-112.529 5.571,-163.792c1.112,-13.366 -23.396,-13.366 -11.146,-28.966c15.6,1.125 14.487,17.829 22.287,26.746l23.396,-18.946c13.371,12.262 -13.367,20.062 -15.596,32.325l-7.8,158.204c21.167,3.337 32.558,26.533 44.567,40.104c5.008,18.459 4.454,42.333 -0,61.271c26.742,27.862 7.796,69.092 -2.229,99.171c-22.284,21.166 7.796,47.904 5.571,74.662c49.02,50.134 109.183,85.771 181.612,85.771c75.754,2.234 143.712,-45.666 176.037,-112.529c22.271,-159.317 -50.149,-291.913 -74.666,-438.979l-21.163,-26.738c15.596,-13.366 13.367,13.367 26.746,13.367c0,-18.933 -3.346,-41.217 13.371,-50.133c6.679,12.262 -2.225,31.2 -2.225,47.904c10.025,96.933 45.671,183.833 63.504,277.433c25.621,1.104 57.933,6.692 66.842,26.734c11.141,-18.934 16.712,-40.101 16.712,-63.501c-22.283,8.905 -51.254,25.63 -72.421,10.03Z" style="fill:#f7ec1d;fill-rule:nonzero;"/><path d="M2270.35,936.129c16.704,3.338 40.104,-4.462 49.016,-16.708c-18.945,-7.796 -40.112,3.342 -49.016,16.708Z" style="fill:#f7ec1d;fill-rule:nonzero;"/><path d="M2225.8,317.596l-3.338,34.537c1.105,-20.046 -10.054,-71.116 -28.999,-80.041l-5.563,-0c0,-2.221 1.112,-5.567 -2.225,-7.8c20.042,-17.821 38.558,29.758 40.125,53.304Z" style="fill:#fff;fill-rule:nonzero;"/><path d="M2176.75,315.554l-2.217,0l-2.233,-43.462c1.117,14.496 6.683,27.862 4.45,43.462Z" style="fill:#fff;fill-rule:nonzero;"/><path d="M2073.15,317.783l2.229,-42.346l18.938,0l-21.167,42.346Z" style="fill:#fff;fill-rule:nonzero;"/><path d="M2107.68,294.388l2.233,-18.951l8.901,0l-11.134,18.951Z" style="fill:#fff;fill-rule:nonzero;"/><path d="M2158.93,321.121c-10.025,-10.033 -13.379,-31.2 -8.917,-45.684c6.684,11.151 10.034,28.967 8.917,45.684Z" style="fill:#fff;fill-rule:nonzero;"/><path d="M2056.42,281.017c-0,11.137 3.362,24.504 -10.021,31.187c-4.454,-7.8 -5.567,-33.421 10.021,-31.187Z" style="fill:#fff;fill-rule:nonzero;"/><path d="M2136.64,323.354l-4.463,0l0,-34.537c1.129,11.137 6.7,21.166 4.463,34.537Z" style="fill:#fff;fill-rule:nonzero;"/><path d="M2046.4,331.15l10.021,-10.029c1.125,12.262 7.812,23.4 13.379,34.537c15.6,-10.033 13.379,-31.2 22.283,-45.675c2.234,17.821 -6.683,40.104 7.8,53.471c22.284,2.234 20.05,-23.396 40.104,-26.733c17.83,-6.696 34.546,7.8 36.763,24.504c4.467,21.167 5.575,46.8 -10.025,63.513c-14.475,7.799 -25.613,32.312 -45.671,18.933c-3.337,-3.346 -2.237,-14.483 -11.138,-11.134c-4.466,5.567 -7.8,15.588 -2.233,22.284c24.5,2.229 43.45,-1.117 61.267,17.829c-45.667,85.775 -137.034,137.038 -232.846,129.238c-24.512,-5.567 -47.912,-28.967 -61.279,-51.263c-12.258,-21.167 -8.913,-47.9 -13.371,-72.408c38.992,3.341 66.85,-24.513 91.362,-50.134l-5.579,-5.579c-42.329,30.084 -96.925,55.713 -149.287,36.767c-17.829,-7.8 -18.942,-31.188 -13.371,-47.913c21.167,-88.004 123.667,-38.987 176.037,-82.437c0,6.683 2.221,11.137 7.796,15.6c17.821,-18.938 33.421,-43.463 61.275,-53.484c5.58,11.151 -1.108,42.346 16.713,40.113Z" style="fill:#fff;fill-rule:nonzero;"/><path d="M2193.46,369.025c-23.388,-17.821 6.687,-44.567 -3.346,-72.408c10.033,20.041 12.262,51.241 3.346,72.408Z" style="fill:#fff;fill-rule:nonzero;"/><path d="M2113.25,334.488c-8.908,-7.796 -5.571,-25.63 2.229,-35.65c-1.117,12.25 2.234,25.62 -2.229,35.65Z" style="fill:#fff;fill-rule:nonzero;"/><path d="M2187.9,459.271c23.387,-25.617 26.742,-60.154 32.308,-93.583c8.909,39 2.692,91.437 -32.308,93.583Z" style="fill:#fff;fill-rule:nonzero;"/><path d="M2163.38,451.471l-4.45,-5.567c25.621,-13.367 20.05,-42.346 40.113,-55.712c-4.463,23.4 -11.142,53.479 -35.663,61.279Z" style="fill:#fff;fill-rule:nonzero;"/><path d="M2121.05,659.821l-40.104,-76.867l69.066,-53.496c2.234,42.346 -23.395,85.796 -28.962,130.363Z" style="fill:#fff;fill-rule:nonzero;"/><path d="M2048.63,638.654c-15.6,-2.229 -32.316,-2.229 -42.333,-15.6c6.671,-17.829 35.646,-20.062 53.483,-30.083c4.45,13.371 -7.804,31.192 -11.15,45.683Z" style="fill:#fff;fill-rule:nonzero;"/><path d="M2083.18,623.054l-17.833,13.371l7.804,-34.537c4.45,3.337 12.25,11.137 10.029,21.166Z" style="fill:#fff;fill-rule:nonzero;"/><path d="M1955.03,684.329c-12.245,-17.821 -15.591,-44.571 -23.396,-66.842l61.288,0l-37.892,66.842Z" style="fill:#fff;fill-rule:nonzero;"/><path d="M2297.08,999.629c-7.8,35.667 -14.487,71.304 -34.533,101.404l-10.037,-111.433c14.495,-12.242 33.433,-2.213 44.57,10.029Z" style="fill:#fff;fill-rule:nonzero;"/><path d="M1840.28,1077.63c13.367,43.467 40.109,92.475 28.967,135.938c-17.825,20.037 -41.225,34.533 -69.075,24.504c-23.4,-43.442 -39,-90.242 -55.708,-137.038c26.741,-18.941 59.05,-26.741 95.816,-23.404Z" style="fill:#fff;fill-rule:nonzero;"/><path d="M2142.22,371.254c8.912,1.117 17.829,7.8 21.162,16.708c5.567,14.492 -6.683,25.63 -17.829,28.976c-5.567,1.116 -11.133,-1.113 -13.371,-5.58c6.7,3.35 17.833,-4.441 21.171,-13.366c0,-6.675 -2.221,-11.138 -7.8,-15.6c-4.442,1.125 -11.133,-2.217 -13.371,2.233c-5.562,-11.138 7.804,-24.504 15.604,-32.304l5.567,5.567l-11.133,13.366Z" style="fill:#221f20;fill-rule:nonzero;"/></g></svg>
