<?xml version="1.0" encoding="UTF-8" standalone="no"?><!DOCTYPE svg PUBLIC "-//W3C//DTD SVG 1.1//EN" "http://www.w3.org/Graphics/SVG/1.1/DTD/svg11.dtd"><svg viewBox="0 0 2342 884" version="1.1" xmlns="http://www.w3.org/2000/svg" xmlns:xlink="http://www.w3.org/1999/xlink" xml:space="preserve" xmlns:serif="http://www.serif.com/" style="fill-rule:evenodd;clip-rule:evenodd;stroke-linejoin:round;stroke-miterlimit:2;"><g><path d="M1354.83,611.817l-84.571,-0l0,175.421c0,11.108 1.063,20.287 3.209,27.545c2.129,7.267 5.221,12.921 9.287,16.975c4.05,4.067 8.858,6.838 14.413,8.33c5.546,1.499 11.537,2.241 17.941,2.241c5.98,0 12.275,-0.85 18.9,-2.558c6.613,-1.704 12.913,-4.058 18.9,-7.05l1.921,37.8c-7.692,2.996 -15.691,5.229 -24.025,6.729c-8.329,1.492 -17.408,2.242 -27.229,2.242c-8.117,-0 -16.658,-1.075 -25.625,-3.204c-8.971,-2.134 -17.3,-6.188 -24.988,-12.171c-7.687,-5.979 -13.991,-14.096 -18.9,-24.346c-4.912,-10.254 -7.366,-23.709 -7.366,-40.367l-0,-187.587l-62.146,-0l0,-36.521l62.146,-0l-0,-84.054l43.562,-0l0,84.054l84.571,-0l0,36.521Z" style="fill:#221f20;fill-rule:nonzero;"/><path d="M927.2,575.271l0.013,50.771l0.158,-0c8.546,-17.509 21.608,-30.692 40.833,-41.579c19.217,-10.896 39.504,-16.342 60.863,-16.342c38.012,-0 66.516,11.321 85.533,33.954c18.996,22.646 28.508,52.537 28.508,89.696l0,183.875l-43.566,-0l-0,-165.938c-0,-15.795 -1.284,-30.108 -3.846,-42.925c-2.559,-12.812 -6.95,-23.804 -13.133,-32.995c-6.196,-9.18 -14.525,-16.334 -24.988,-21.459c-10.467,-5.125 -23.604,-7.692 -39.4,-7.692c-11.533,0 -22.746,2.355 -33.633,7.051c-10.892,4.708 -20.613,11.849 -29.155,21.462c-8.55,9.608 -15.37,21.788 -20.499,36.517c-5.125,14.737 -7.692,32.15 -7.692,52.216l-0,153.763l-43.563,-0l0.029,-300.375l43.538,-0Z" style="fill:#221f20;fill-rule:nonzero;"/><path d="M607.917,665.825c5.541,-11.742 13.02,-22.204 22.421,-31.392c9.391,-9.179 20.279,-16.441 32.679,-21.783c12.383,-5.338 25.833,-8.013 40.362,-8.013c31.167,0 55.196,9.296 72.071,27.871c16.871,18.584 25.95,41.963 27.229,70.159l-204.375,-0c0.854,-12.817 4.05,-25.092 9.613,-36.842Zm176.387,150.558c-5.512,4.959 -11.558,9.7 -18.462,14.096c-16.45,10.471 -35.988,15.696 -58.625,15.696c-15.375,-0 -29.692,-2.883 -42.925,-8.65c-13.238,-5.767 -24.775,-13.554 -34.592,-23.379c-9.833,-9.825 -17.521,-21.354 -23.062,-34.6c-5.563,-13.233 -8.555,-27.329 -8.976,-42.288l248.588,0c0.417,-3.841 0.642,-7.466 0.642,-10.891l-0,-9.609c-0,-20.5 -3.104,-39.725 -9.3,-57.658c-6.192,-17.942 -15.271,-33.637 -27.225,-47.092c-11.963,-13.458 -26.909,-24.125 -44.842,-32.037c-17.946,-7.896 -38.667,-11.85 -62.146,-11.85c-21.367,-0 -41.225,3.954 -59.587,11.85c-18.367,7.912 -34.388,18.904 -48.05,32.996c-13.675,14.095 -24.346,30.754 -32.034,49.975c-7.687,19.221 -11.533,40.15 -11.533,62.787c0,22.642 3.946,43.567 11.854,62.788c7.9,19.216 18.679,35.879 32.354,49.971c13.663,14.095 30,25.1 49.013,32.991c18.996,7.9 39.608,11.854 61.821,11.854c24.766,0 47.941,-4.916 69.516,-14.733c21.563,-9.825 43.604,-27.179 61.959,-52.25l-54.388,0.033Z" style="fill:#221f20;fill-rule:nonzero;"/><path d="M564.288,422.046l-147.359,394.016l-1.279,0l-90.054,-240.795l-48.846,-0l114.55,300.379l48.696,-0l173.625,-453.6l-49.333,-0Z" style="fill:#221f20;fill-rule:nonzero;"/><path d="M43.567,575.271l0.012,50.771l0.158,-0c8.542,-17.509 21.609,-30.692 40.83,-41.579c19.221,-10.896 39.504,-16.342 60.862,-16.342c38.013,-0 66.521,11.321 85.533,33.954c18.996,22.646 28.509,52.537 28.509,89.696l-0,183.875l-43.563,-0l0,-165.938c0,-15.795 -1.283,-30.108 -3.845,-42.925c-2.563,-12.812 -6.946,-23.804 -13.134,-32.995c-6.196,-9.18 -14.529,-16.334 -24.987,-21.459c-10.471,-5.125 -23.604,-7.692 -39.4,-7.692c-11.534,0 -22.746,2.355 -33.638,7.051c-10.891,4.708 -20.608,11.849 -29.15,21.462c-8.55,9.608 -15.375,21.788 -20.504,36.517c-5.125,14.737 -7.688,32.15 -7.688,52.216l0,153.763l-43.562,-0l0.029,-300.375l43.538,-0Z" style="fill:#221f20;fill-rule:nonzero;"/><path d="M329.579,357.921c-2.579,-12.788 5.688,-25.258 18.492,-27.842l139.008,-28.042c12.804,-2.579 25.275,5.705 27.854,18.488c2.584,12.808 -5.7,25.279 -18.5,27.858l-139.016,28.042c-12.8,2.583 -25.254,-5.704 -27.838,-18.504Z" style="fill:#f26423;fill-rule:nonzero;"/><path d="M531.387,236.604c-7.233,10.875 -21.895,13.829 -32.779,6.613l-118.12,-78.463c-10.867,-7.221 -13.825,-21.879 -6.609,-32.766c7.217,-10.88 21.892,-13.842 32.779,-6.596l118.121,78.458c10.871,7.225 13.829,21.883 6.608,32.754Z" style="fill:#ecaf1f;fill-rule:nonzero;"/><path d="M620.863,161.062c2.583,12.801 -5.705,25.259 -18.496,27.838c-12.8,2.588 -25.267,-5.688 -27.85,-18.487l-28.042,-138.996c-2.579,-12.805 5.7,-25.288 18.504,-27.871c12.783,-2.579 25.258,5.721 27.842,18.521l28.042,138.995Z" style="fill:#c4262e;fill-rule:nonzero;"/><path d="M679.675,172.604l78.475,-118.117c7.212,-10.9 21.887,-13.854 32.733,-6.616c10.9,7.225 13.859,21.887 6.609,32.775l-78.45,118.104c-7.217,10.867 -21.896,13.829 -32.763,6.608c-10.871,-7.221 -13.825,-21.879 -6.604,-32.754Z" style="fill:#f26423;fill-rule:nonzero;"/><path d="M900.833,266.804l-138.995,28.038c-12.801,2.583 -25.276,-5.7 -27.859,-18.5c-2.579,-12.792 5.704,-25.263 18.509,-27.846l138.995,-28.038c12.788,-2.579 25.271,5.705 27.855,18.488c2.583,12.804 -5.713,25.279 -18.505,27.858Z" style="fill:#ecaf1f;fill-rule:nonzero;"/><path d="M875.038,464.875c-7.226,10.887 -21.892,13.846 -32.767,6.608l-118.134,-78.454c-10.866,-7.208 -13.829,-21.896 -6.608,-32.767c7.217,-10.87 21.892,-13.829 32.763,-6.608l118.108,78.475c10.896,7.217 13.854,21.875 6.638,32.746Z" style="fill:#c4262e;fill-rule:nonzero;"/><rect x="1436.75" y="491.379" width="18.629" height="384.546" style="fill:#c4262e;fill-rule:nonzero;"/><path d="M2286.3,764.392c-0,-21.171 -3.542,-37.229 -10.617,-48.217c-7.058,-10.958 -17.179,-16.45 -30.346,-16.45c-25.75,-0 -39.349,19.313 -40.812,57.95l-0.15,15.642c-0,20.87 3.462,36.9 10.392,48.129c6.908,11.225 17.212,16.808 30.854,16.808c12.975,0 22.975,-5.496 29.987,-16.512c7.034,-11.017 10.588,-26.867 10.692,-47.559l-0,-9.791Zm52.212,8.925c0,20.779 -3.85,39.137 -11.549,55.141c-7.705,16.004 -18.646,28.305 -32.842,36.929c-14.196,8.634 -30.346,12.963 -48.5,12.963c-18.138,0 -34.229,-4.183 -48.279,-12.512c-14.03,-8.33 -24.988,-20.271 -32.846,-35.767c-7.842,-15.496 -11.967,-33.317 -12.35,-53.413l-0,-11.971c-0,-20.866 3.833,-39.287 11.492,-55.229c7.641,-15.945 18.612,-28.275 32.9,-36.933c14.304,-8.688 30.558,-13.017 48.799,-13.017c18.034,0 34.121,4.271 48.275,12.867c14.134,8.571 25.138,20.779 32.992,36.633c7.85,15.854 11.821,34.034 11.908,54.517l0,9.792Z" style="fill:#c4262e;fill-rule:nonzero;"/><path d="M2138.95,803.292c-0.671,14.837 -4.671,27.912 -11.983,39.291c-7.317,11.371 -17.588,20.15 -30.8,26.392c-13.208,6.237 -28.3,9.375 -45.275,9.375c-27.988,0 -50.038,-9.108 -66.125,-27.35c-16.096,-18.242 -24.142,-44.004 -24.142,-77.267l0,-10.508c0,-20.867 3.646,-39.142 10.9,-54.783c7.267,-15.671 17.734,-27.767 31.375,-36.3c13.663,-8.513 29.454,-12.784 47.409,-12.784c25.841,0 46.608,6.809 62.308,20.396c15.704,13.609 24.629,32.359 26.779,56.246l-51.2,-0c-0.387,-12.963 -3.658,-22.275 -9.808,-27.946c-6.134,-5.646 -15.509,-8.479 -28.079,-8.479c-12.775,-0 -22.15,4.775 -28.092,14.329c-5.958,9.588 -9.075,24.842 -9.358,45.8l-0,15.075c-0,22.717 2.849,38.963 8.554,48.696c5.7,9.763 15.52,14.629 29.479,14.629c11.796,0 20.825,-2.775 27.066,-8.329c6.238,-5.554 9.555,-14.396 9.942,-26.483l51.05,-0Z" style="fill:#c4262e;fill-rule:nonzero;"/><rect x="1893.87" y="662.433" width="51.2" height="212.992" style="fill:#c4262e;fill-rule:nonzero;"/><path d="M1761.14,760.6l32.466,0c9.763,0 17.092,-2.567 22.017,-7.704c4.929,-5.133 7.388,-12.3 7.388,-21.496c-0,-9.196 -2.476,-16.387 -7.463,-21.646c-4.971,-5.225 -12.283,-7.821 -21.942,-7.821l-32.466,0l-0,58.667Zm27.796,39.467l-27.796,-0l-0,75.358l-51.35,-0l-0,-212.992l83.816,0c25.255,0 45.009,5.584 59.25,16.78c14.242,11.225 21.359,27.049 21.359,47.499c-0,14.809 -3,27.08 -9.004,36.842c-5.984,9.734 -15.371,17.617 -28.151,23.675l45.671,88.196l-56.212,-0l-37.583,-75.358Z" style="fill:#c4262e;fill-rule:nonzero;"/><path d="M1670.92,785.021l-80.746,-0l-0,50.9l95.371,-0l-0,39.504l-146.725,-0l-0,-212.992l147.029,0l0,39.65l-95.675,0l-0,44.9l80.746,0l-0,38.038Z" style="fill:#c4262e;fill-rule:nonzero;"/></g></svg>
