<svg width="56" height="56" viewBox="0 0 56 56" fill="none" xmlns="http://www.w3.org/2000/svg">
<path d="M8.75 16.3357H47.25C48.2165 16.3357 49 17.1192 49 18.0857C49 19.0522 48.2165 19.8357 47.25 19.8357H8.75C7.7835 19.8357 7 19.0522 7 18.0857C7 17.1192 7.7835 16.3357 8.75 16.3357Z" fill="white"/>
<path d="M15.75 26.2523H47.25C48.2165 26.2523 49 27.0358 49 28.0023C49 28.9688 48.2165 29.7523 47.25 29.7523H15.75C14.7835 29.7523 14 28.9688 14 28.0023C14 27.0358 14.7835 26.2523 15.75 26.2523Z" fill="white"/>
<path d="M8.75 36.1643H47.25C48.2165 36.1643 49 36.9478 49 37.9143C49 38.8808 48.2165 39.6643 47.25 39.6643H8.75C7.7835 39.6643 7 38.8808 7 37.9143C7 36.9478 7.7835 36.1643 8.75 36.1643Z" fill="white"/>
</svg>
